<svg width="32" height="32" viewBox="0 0 32 32" fill="none" xmlns="http://www.w3.org/2000/svg">
<rect x="31.5" y="31.5" width="31" height="31" rx="15.5" transform="rotate(-180 31.5 31.5)" fill="white"/>
<path fill-rule="evenodd" clip-rule="evenodd" d="M13.2929 20.7071C12.9024 20.3166 12.9024 19.6834 13.2929 19.2929L16.5858 16L13.2929 12.7071C12.9024 12.3166 12.9024 11.6834 13.2929 11.2929C13.6834 10.9024 14.3166 10.9024 14.7071 11.2929L18.7071 15.2929C18.8946 15.4804 19 15.7348 19 16C19 16.2652 18.8946 16.5196 18.7071 16.7071L14.7071 20.7071C14.3166 21.0976 13.6834 21.0976 13.2929 20.7071Z" fill="#50546B"/>
<rect x="31.5" y="31.5" width="31" height="31" rx="15.5" transform="rotate(-180 31.5 31.5)" stroke="#CED1DF"/>
</svg>
